<svg width="1923" height="430" viewBox="0 0 1923 430" fill="none" xmlns="http://www.w3.org/2000/svg">
<g opacity="0.4">
<path d="M195.344 50.1065L186.188 79.3606C185.729 80.8272 183.857 81.2498 182.812 80.1224L162.623 58.3253C161.592 57.2123 162.127 55.4015 163.597 55.0279L192.942 47.5707C194.459 47.1853 195.811 48.6128 195.344 50.1065Z" stroke="#12278C" stroke-width="4"/>
<path d="M1796.7 400.611L1816.12 406.909C1817.59 407.383 1817.99 409.26 1816.85 410.293L1802.19 423.594C1801.07 424.614 1799.27 424.06 1798.91 422.586L1794.14 402.986C1793.77 401.466 1795.21 400.128 1796.7 400.611Z" stroke="#12278C" stroke-width="4"/>
<path d="M678.381 137.266L665.205 180.947L636.746 157.995L678.381 137.266Z" fill="#8B95C6"/>
<path fill-rule="evenodd" clip-rule="evenodd" d="M664.473 175.558L635.212 151.959L678.02 130.646L664.473 175.558ZM662.851 170.305L673.029 136.561L640.866 152.574L662.851 170.305Z" fill="#12278C"/>
<path d="M1749.61 112.804L1774.54 120.323L1761.44 136.564L1749.61 112.804Z" fill="#8B95C6"/>
<path fill-rule="evenodd" clip-rule="evenodd" d="M1771.47 120.742L1758 137.441L1745.84 113.011L1771.47 120.742ZM1768.47 121.668L1749.21 115.86L1758.35 134.215L1768.47 121.668Z" fill="#12278C"/>
<circle opacity="0.5" cx="467.054" cy="144.367" r="33.0154" transform="rotate(-0.105164 467.054 144.367)" stroke="#F2C94C" stroke-width="4"/>
<circle opacity="0.5" cx="1201.24" cy="161.242" r="22.1976" transform="rotate(-0.105164 1201.24 161.242)" stroke="#F2C94C" stroke-width="4"/>
<path fill-rule="evenodd" clip-rule="evenodd" d="M1142.68 59.9894L1144.01 71.8733L1140.19 72.2997L1139.23 63.6642L1130.1 63.2119L1129.49 54.1366L1120.37 53.6459L1119.98 44.7825L1111.16 44.3613L1110.62 35.4736L1103.05 35.314L1103.13 31.4736L1114.24 31.7077L1114.79 40.6888L1123.66 41.1127L1124.06 49.9973L1133.1 50.4838L1133.7 59.5445L1142.68 59.9894Z" fill="#12278C"/>
<path fill-rule="evenodd" clip-rule="evenodd" d="M1915.89 265.615L1917.21 277.499L1913.4 277.926L1912.43 269.29L1903.3 268.838L1902.7 259.763L1893.58 259.272L1893.19 250.408L1884.37 249.987L1883.83 241.1L1876.26 240.94L1876.34 237.1L1887.45 237.334L1887.99 246.315L1896.87 246.739L1897.26 255.623L1906.31 256.11L1906.91 265.17L1915.89 265.615Z" fill="#F8E3A5"/>
<path fill-rule="evenodd" clip-rule="evenodd" d="M389.045 59.9796L390.372 71.8635L386.554 72.29L385.59 63.6545L376.46 63.2021L375.856 54.1268L366.739 53.6362L366.344 44.7727L357.528 44.3515L356.985 35.4638L349.415 35.3043L349.496 31.4638L360.603 31.6979L361.152 40.679L370.026 41.103L370.422 49.9875L379.462 50.4741L380.066 59.5347L389.045 59.9796Z" fill="#F8E3A5"/>
<mask id="mask0" mask-type="alpha" maskUnits="userSpaceOnUse" x="1415" y="61" width="112" height="112">
<path d="M1526.45 117.009C1526.51 147.674 1501.69 172.579 1471.03 172.635C1440.36 172.691 1415.46 147.878 1415.4 117.213C1415.35 86.5483 1440.16 61.6438 1470.82 61.5875C1501.49 61.5313 1526.39 86.3445 1526.45 117.009Z" fill="#C4C4C4"/>
</mask>
<g mask="url(#mask0)">
<path fill-rule="evenodd" clip-rule="evenodd" d="M1518.87 88.9118C1519.33 89.7037 1519.76 90.5023 1520.18 91.3068L1424.22 146.941C1423.73 146.18 1423.26 145.404 1422.8 144.612C1421.78 142.859 1420.87 141.074 1420.07 139.264L1515.58 83.885C1516.75 85.4829 1517.85 87.1592 1518.87 88.9118ZM1513.25 80.9159L1546.86 61.4292L1548.73 64.6646L1515.58 83.885C1514.83 82.8631 1514.05 81.8732 1513.25 80.9159ZM1418.65 135.763L1513.25 80.9159C1511.28 78.5877 1509.15 76.4521 1506.89 74.5166L1542.48 53.8801L1540.6 50.6447L1503.74 72.0203C1501.04 70.0417 1498.19 68.3223 1495.22 66.8728L1536.23 43.0955L1534.35 39.8602L1490.97 65.0147C1487.12 63.5209 1483.12 62.4574 1479.03 61.8452L1529.97 32.311L1528.1 29.0756L1472.59 61.2584C1462.56 60.9309 1452.31 63.3204 1442.98 68.7279C1433.66 74.1353 1426.49 81.8408 1421.79 90.713L1365.07 123.598L1366.95 126.833L1419.1 96.5969C1417.6 100.443 1416.54 104.445 1415.92 108.526L1371.33 134.382L1373.2 137.618L1415.42 113.138C1415.2 116.438 1415.28 119.769 1415.66 123.089L1377.58 145.167L1379.45 148.402L1416.26 127.064C1416.81 129.993 1417.61 132.902 1418.65 135.763ZM1418.65 135.763L1383.83 155.951L1385.71 159.187L1420.07 139.264C1419.55 138.107 1419.08 136.939 1418.65 135.763ZM1416.26 127.064L1506.89 74.5166C1505.86 73.6436 1504.81 72.8113 1503.74 72.0203L1415.66 123.089C1415.81 124.416 1416.01 125.742 1416.26 127.064ZM1415.42 113.138L1495.22 66.8728C1493.82 66.1938 1492.41 65.5741 1490.97 65.0147L1415.92 108.526C1415.69 110.054 1415.52 111.593 1415.42 113.138ZM1419.1 96.5969C1419.88 94.589 1420.78 92.6239 1421.79 90.713L1472.59 61.2584C1474.75 61.329 1476.9 61.5256 1479.03 61.8452L1419.1 96.5969ZM1426.37 150.022L1391.96 169.971L1390.08 166.736L1424.22 146.941C1424.91 147.999 1425.62 149.026 1426.37 150.022ZM1521.79 94.6961L1426.37 150.022C1428.16 152.433 1430.13 154.662 1432.24 156.703L1396.34 177.52L1398.21 180.756L1435.16 159.332C1437.64 161.41 1440.28 163.251 1443.05 164.846L1402.59 188.305L1404.47 191.54L1446.96 166.9C1450.43 168.544 1454.05 169.825 1457.76 170.726L1408.84 199.089L1410.72 202.325L1463.39 171.787C1475.18 173.392 1487.59 171.23 1498.68 164.796C1509.78 158.362 1517.82 148.674 1522.28 137.639L1573.74 107.803L1571.87 104.567L1524.16 132.229C1525.22 128.558 1525.91 124.78 1526.2 120.957L1567.49 97.0182L1565.61 93.7828L1526.37 116.54C1526.36 113.347 1526.07 110.14 1525.5 106.955L1561.24 86.2337L1559.36 82.9983L1524.67 103.114C1523.94 100.269 1522.99 97.4545 1521.79 94.6961ZM1521.79 94.6961L1554.98 75.4491L1553.11 72.2138L1520.18 91.3068C1520.76 92.4257 1521.29 93.5561 1521.79 94.6961ZM1524.67 103.114C1524.99 104.389 1525.27 105.67 1525.5 106.955L1435.16 159.332C1434.16 158.494 1433.19 157.617 1432.24 156.703L1524.67 103.114ZM1526.37 116.54C1526.37 118.016 1526.32 119.49 1526.2 120.957L1446.96 166.9C1445.64 166.268 1444.33 165.583 1443.05 164.846L1526.37 116.54ZM1524.16 132.229L1457.76 170.726C1459.62 171.175 1461.49 171.53 1463.39 171.787L1522.28 137.639C1523 135.867 1523.63 134.062 1524.16 132.229Z" fill="#CDCFD8"/>
</g>
<mask id="mask1" mask-type="alpha" maskUnits="userSpaceOnUse" x="153" y="174" width="112" height="112">
<path d="M264.15 229.524C264.206 260.189 239.393 285.093 208.728 285.15C178.063 285.206 153.158 260.393 153.102 229.728C153.046 199.063 177.859 174.158 208.524 174.102C239.189 174.046 264.093 198.859 264.15 229.524Z" fill="#C4C4C4"/>
</mask>
<g mask="url(#mask1)">
<path fill-rule="evenodd" clip-rule="evenodd" d="M256.565 201.426C257.025 202.218 257.462 203.017 257.878 203.821L161.924 259.456C161.432 258.695 160.957 257.919 160.497 257.127C159.481 255.374 158.572 253.589 157.767 251.779L253.281 196.4C254.452 197.998 255.549 199.674 256.565 201.426ZM250.946 193.431L284.555 173.944L286.431 177.179L253.281 196.4C252.532 195.378 251.753 194.388 250.946 193.431ZM156.35 248.277L250.946 193.431C248.983 191.102 246.854 188.967 244.586 187.031L280.178 166.395L278.302 163.159L241.435 184.535C238.742 182.556 235.889 180.837 232.916 179.387L273.925 155.61L272.05 152.375L228.665 177.529C224.818 176.036 220.815 174.972 216.734 174.36L267.673 144.826L265.797 141.59L210.29 173.773C200.254 173.446 190.008 175.835 180.681 181.243C171.355 186.65 164.19 194.355 159.489 203.228L102.771 236.112L104.647 239.348L156.797 209.112C155.3 212.957 154.234 216.96 153.62 221.04L109.024 246.897L110.9 250.132L153.12 225.653C152.901 228.953 152.976 232.283 153.355 235.604L115.277 257.681L117.153 260.917L153.956 239.578C154.509 242.508 155.305 245.417 156.35 248.277ZM156.35 248.277L121.53 268.466L123.406 271.701L157.767 251.779C157.252 250.621 156.78 249.453 156.35 248.277ZM153.956 239.578L244.586 187.031C243.563 186.158 242.512 185.326 241.435 184.535L153.355 235.604C153.507 236.931 153.707 238.257 153.956 239.578ZM153.12 225.653L232.916 179.387C231.524 178.708 230.105 178.089 228.665 177.529L153.62 221.04C153.39 222.568 153.223 224.107 153.12 225.653ZM156.797 209.112C157.578 207.104 158.476 205.139 159.489 203.228L210.29 173.773C212.452 173.844 214.603 174.04 216.734 174.36L156.797 209.112ZM164.065 262.537L129.659 282.486L127.783 279.25L161.924 259.456C162.608 260.513 163.322 261.541 164.065 262.537ZM259.488 207.211L164.065 262.537C165.864 264.948 167.831 267.177 169.941 269.217L134.036 290.035L135.912 293.27L172.861 271.847C175.341 273.925 177.983 275.766 180.749 277.361L140.289 300.82L142.165 304.055L184.663 279.414C188.126 281.059 191.747 282.34 195.461 283.24L146.542 311.604L148.417 314.839L201.087 284.302C212.884 285.906 225.284 283.745 236.382 277.311C247.479 270.876 255.515 261.189 259.984 250.153L311.443 220.317L309.567 217.082L261.858 244.744C262.922 241.073 263.609 237.294 263.902 233.472L305.19 209.533L303.314 206.297L264.064 229.054C264.054 225.861 263.769 222.654 263.198 219.47L298.937 198.748L297.061 195.513L262.367 215.629C261.644 212.784 260.687 209.969 259.488 207.211ZM259.488 207.211L292.684 187.964L290.808 184.728L257.878 203.821C258.456 204.94 258.993 206.071 259.488 207.211ZM262.367 215.629C262.691 216.904 262.967 218.185 263.198 219.47L172.861 271.847C171.861 271.009 170.887 270.132 169.941 269.217L262.367 215.629ZM264.064 229.054C264.069 230.531 264.014 232.005 263.902 233.472L184.663 279.414C183.334 278.783 182.028 278.098 180.749 277.361L264.064 229.054ZM261.858 244.744L195.461 283.24C197.316 283.69 199.194 284.044 201.087 284.302L259.984 250.153C260.701 248.382 261.326 246.576 261.858 244.744Z" fill="#CDCFD8"/>
</g>
<g opacity="0.2">
<mask id="mask2" mask-type="alpha" maskUnits="userSpaceOnUse" x="823" y="-5" width="95" height="95">
<path d="M894.361 19.3948C907.368 32.3541 907.407 53.4038 894.448 66.4107C881.488 79.4176 860.439 79.4563 847.432 66.497C834.425 53.5378 834.386 32.488 847.346 19.4811C860.305 6.47424 881.354 6.4356 894.361 19.3948Z" fill="#C4C4C4"/>
</mask>
<g mask="url(#mask2)">
<path fill-rule="evenodd" clip-rule="evenodd" d="M894.362 19.3945C894.75 19.7813 895.127 20.1754 895.492 20.5762L848.618 67.6225C848.216 67.2588 847.82 66.8835 847.432 66.4966C846.573 65.6405 845.77 64.749 845.024 63.8269L891.683 16.9962C892.608 17.7389 893.502 18.5383 894.362 19.3945ZM889.872 15.6408L906.291 -0.837752L907.877 0.742732L891.683 16.9962C891.091 16.5212 890.488 16.0694 889.872 15.6408ZM843.662 62.0213L889.872 15.6408C888.376 14.5985 886.814 13.6934 885.202 12.9255L902.589 -4.52555L901.003 -6.10603L882.993 11.97C881.129 11.243 879.212 10.6907 877.268 10.3131L897.302 -9.79383L895.715 -11.3743L874.522 9.89725C872.065 9.62942 869.585 9.63472 867.13 9.91306L892.014 -15.0621L890.428 -16.6426L863.312 10.5723C857.458 11.9381 851.902 14.908 847.346 19.4808C842.79 24.0535 839.84 29.6203 838.496 35.4801L810.789 63.2886L812.376 64.8691L837.851 39.3004C837.581 41.7564 837.585 44.2366 837.862 46.6918L816.077 68.5569L817.663 70.1374L838.288 49.4369C838.673 51.3793 839.232 53.2939 839.966 55.1556L821.365 73.8252L822.951 75.4057L840.929 57.3611C841.703 58.9698 842.614 60.529 843.662 62.0213ZM843.662 62.0213L826.652 79.0935L828.239 80.674L845.024 63.8269C844.547 63.2372 844.093 62.6349 843.662 62.0213ZM840.929 57.3611L885.202 12.9255C884.475 12.5791 883.738 12.2606 882.993 11.97L839.966 55.1556C840.259 55.8998 840.58 56.6355 840.929 57.3611ZM838.288 49.4369L877.268 10.3131C876.358 10.1361 875.441 9.99754 874.522 9.89725L837.862 46.6918C837.966 47.6112 838.108 48.5271 838.288 49.4369ZM837.851 39.3004C837.991 38.018 838.206 36.7423 838.496 35.4801L863.312 10.5723C864.573 10.2782 865.848 10.0584 867.13 9.91306L837.851 39.3004ZM850.334 69.0727L833.526 85.9422L831.94 84.3617L848.618 67.6225C849.177 68.1283 849.75 68.6117 850.334 69.0727ZM896.948 22.2869L850.334 69.0727C851.748 70.1882 853.231 71.1726 854.767 72.0258L837.228 89.63L838.814 91.2105L856.864 73.0941C858.62 73.9114 860.433 74.5669 862.28 75.0606L842.515 94.8983L844.102 96.4788L864.862 75.6418C867.12 76.0564 869.413 76.2362 871.7 76.1812L847.803 100.167L849.389 101.747L875.118 75.9233C882.19 75.0231 889.027 71.8514 894.448 66.4103C899.869 60.9693 903.015 54.1209 903.89 47.0461L929.027 21.8159L927.441 20.2354L904.135 43.6272C904.182 41.3392 903.993 39.0474 903.571 36.791L923.74 16.5476L922.154 14.9671L902.98 34.2112C902.479 32.3659 901.817 30.5555 900.994 28.8022L918.452 11.2793L916.866 9.69881L899.918 26.7095C899.059 25.1762 898.069 23.6966 896.948 22.2869ZM896.948 22.2869L913.165 6.01101L911.578 4.43053L895.492 20.5762C896 21.1337 896.485 21.7044 896.948 22.2869ZM899.918 26.7095C900.302 27.3968 900.661 28.0948 900.994 28.8022L856.864 73.0941C856.155 72.7643 855.456 72.4082 854.767 72.0258L899.918 26.7095ZM902.98 34.2112C903.211 35.0645 903.408 35.9251 903.571 36.791L864.862 75.6418C863.996 75.4826 863.134 75.2889 862.28 75.0606L902.98 34.2112ZM904.135 43.6272L871.7 76.1812C872.842 76.1537 873.983 76.0678 875.118 75.9233L903.89 47.0461C904.03 45.9107 904.112 44.7694 904.135 43.6272Z" fill="#12278C"/>
</g>
</g>
<path fill-rule="evenodd" clip-rule="evenodd" d="M14.6724 128.306C15.2858 128.905 16.2686 128.893 16.8675 128.279C17.4663 127.666 17.4544 126.683 16.841 126.084C16.2275 125.485 15.2448 125.497 14.6459 126.111C14.0471 126.724 14.0589 127.707 14.6724 128.306ZM19.6661 133.181C20.2796 133.779 21.2623 133.768 21.8612 133.154C22.46 132.541 22.4482 131.558 21.8347 130.959C21.2212 130.36 20.2385 130.372 19.6396 130.985C19.0408 131.599 19.0526 132.582 19.6661 133.181ZM26.8936 138.067C26.2947 138.68 25.312 138.692 24.6985 138.093C24.085 137.494 24.0732 136.511 24.672 135.898C25.2709 135.284 26.2536 135.273 26.8671 135.871C27.4806 136.47 27.4924 137.453 26.8936 138.067ZM29.7309 143.005C30.3444 143.604 31.3271 143.592 31.926 142.979C32.5248 142.366 32.513 141.383 31.8995 140.784C31.2861 140.185 30.3033 140.197 29.7044 140.81C29.1056 141.424 29.1175 142.407 29.7309 143.005ZM12.1308 133.132C11.532 133.745 10.5492 133.757 9.93573 133.158C9.32227 132.559 9.31042 131.577 9.90926 130.963C10.5081 130.35 11.4909 130.338 12.1043 130.937C12.7178 131.535 12.7296 132.518 12.1308 133.132ZM14.9681 138.071C15.5816 138.669 16.5644 138.658 17.1632 138.044C17.7621 137.431 17.7502 136.448 17.1367 135.849C16.5233 135.25 15.5405 135.262 14.9417 135.876C14.3428 136.489 14.3547 137.472 14.9681 138.071ZM22.1956 142.957C21.5968 143.57 20.614 143.582 20.0006 142.983C19.3871 142.384 19.3752 141.401 19.9741 140.788C20.5729 140.175 21.5557 140.163 22.1691 140.762C22.7826 141.36 22.7945 142.343 22.1956 142.957ZM25.033 147.896C25.6464 148.494 26.6292 148.483 27.228 147.869C27.8269 147.256 27.815 146.273 27.2016 145.674C26.5881 145.075 25.6053 145.087 25.0065 145.7C24.4077 146.314 24.4195 147.297 25.033 147.896ZM7.21832 138.164C6.61948 138.778 5.63672 138.789 5.02326 138.191C4.40979 137.592 4.39794 136.609 4.99678 135.995C5.59562 135.382 6.57839 135.37 7.19185 135.969C7.80531 136.568 7.81716 137.551 7.21832 138.164ZM10.0557 143.103C10.6691 143.702 11.6519 143.69 12.2507 143.077C12.8496 142.463 12.8377 141.48 12.2243 140.881C11.6108 140.283 10.628 140.294 10.0292 140.908C9.43035 141.521 9.4422 142.504 10.0557 143.103ZM17.2831 147.989C16.6843 148.602 15.7015 148.614 15.0881 148.015C14.4746 147.417 14.4628 146.434 15.0616 145.82C15.6604 145.207 16.6432 145.195 17.2567 145.794C17.8701 146.393 17.882 147.376 17.2831 147.989ZM20.1205 152.928C20.734 153.527 21.7167 153.515 22.3156 152.902C22.9144 152.288 22.9025 151.305 22.2891 150.706C21.6756 150.108 20.6929 150.119 20.094 150.733C19.4952 151.346 19.507 152.329 20.1205 152.928ZM2.30585 143.196C1.70701 143.81 0.72424 143.822 0.110778 143.223C-0.502683 142.624 -0.514535 141.641 0.084306 141.028C0.683147 140.414 1.66591 140.403 2.27937 141.001C2.89284 141.6 2.90469 142.583 2.30585 143.196ZM5.14319 148.135C5.75665 148.734 6.73942 148.722 7.33826 148.109C7.9371 147.495 7.92525 146.513 7.31179 145.914C6.69832 145.315 5.71556 145.327 5.11672 145.94C4.51788 146.554 4.52973 147.537 5.14319 148.135ZM12.3707 153.021C11.7718 153.635 10.7891 153.647 10.1756 153.048C9.56214 152.449 9.55029 151.466 10.1491 150.853C10.748 150.239 11.7307 150.228 12.3442 150.826C12.9577 151.425 12.9695 152.408 12.3707 153.021ZM15.208 157.96C15.8215 158.559 16.8042 158.547 17.4031 157.934C18.0019 157.32 17.9901 156.338 17.3766 155.739C16.7631 155.14 15.7804 155.152 15.1815 155.765C14.5827 156.379 14.5946 157.362 15.208 157.96Z" fill="#8B95C6"/>
<path fill-rule="evenodd" clip-rule="evenodd" d="M1666.14 281.687C1667.77 281.684 1669.09 280.356 1669.09 278.72C1669.09 277.085 1667.76 275.762 1666.13 275.765C1664.49 275.768 1663.17 277.096 1663.17 278.731C1663.17 280.367 1664.5 281.69 1666.14 281.687ZM1679.45 281.662C1681.08 281.659 1682.41 280.331 1682.4 278.696C1682.4 277.061 1681.07 275.738 1679.44 275.741C1677.8 275.744 1676.48 277.072 1676.48 278.707C1676.48 280.342 1677.81 281.665 1679.45 281.662ZM1695.82 278.671C1695.82 280.307 1694.5 281.635 1692.86 281.638C1691.23 281.641 1689.9 280.317 1689.9 278.682C1689.89 277.047 1691.22 275.719 1692.85 275.716C1694.49 275.713 1695.81 277.036 1695.82 278.671ZM1706.28 281.613C1707.91 281.61 1709.23 280.282 1709.23 278.647C1709.23 277.012 1707.9 275.688 1706.26 275.691C1704.63 275.694 1703.31 277.022 1703.31 278.658C1703.31 280.293 1704.64 281.616 1706.28 281.613ZM1669.12 291.654C1669.12 293.29 1667.8 294.618 1666.16 294.621C1664.53 294.624 1663.2 293.3 1663.19 291.665C1663.19 290.03 1664.51 288.702 1666.15 288.699C1667.78 288.696 1669.11 290.019 1669.12 291.654ZM1679.57 294.596C1681.21 294.593 1682.53 293.265 1682.53 291.63C1682.53 289.995 1681.2 288.671 1679.56 288.674C1677.93 288.677 1676.61 290.005 1676.61 291.641C1676.61 293.276 1677.94 294.599 1679.57 294.596ZM1695.94 291.605C1695.95 293.24 1694.62 294.568 1692.99 294.571C1691.35 294.574 1690.03 293.251 1690.02 291.616C1690.02 289.981 1691.34 288.653 1692.98 288.65C1694.61 288.647 1695.94 289.97 1695.94 291.605ZM1706.4 294.547C1708.04 294.544 1709.36 293.216 1709.36 291.581C1709.35 289.945 1708.03 288.622 1706.39 288.625C1704.76 288.628 1703.43 289.956 1703.44 291.591C1703.44 293.227 1704.77 294.55 1706.4 294.547ZM1669.14 305.069C1669.14 306.704 1667.82 308.032 1666.18 308.035C1664.55 308.038 1663.22 306.715 1663.22 305.079C1663.22 303.444 1664.54 302.116 1666.17 302.113C1667.81 302.11 1669.14 303.433 1669.14 305.069ZM1679.6 308.01C1681.23 308.007 1682.56 306.679 1682.55 305.044C1682.55 303.409 1681.22 302.086 1679.59 302.089C1677.95 302.092 1676.63 303.42 1676.63 305.055C1676.64 306.69 1677.96 308.013 1679.6 308.01ZM1695.97 305.019C1695.97 306.654 1694.65 307.983 1693.01 307.986C1691.38 307.989 1690.05 306.665 1690.05 305.03C1690.04 303.395 1691.37 302.067 1693 302.064C1694.64 302.061 1695.97 303.384 1695.97 305.019ZM1706.43 307.961C1708.06 307.958 1709.39 306.63 1709.38 304.995C1709.38 303.359 1708.05 302.036 1706.42 302.039C1704.78 302.042 1703.46 303.37 1703.46 305.006C1703.46 306.641 1704.79 307.964 1706.43 307.961ZM1669.16 318.483C1669.17 320.118 1667.84 321.446 1666.21 321.449C1664.57 321.452 1663.25 320.129 1663.24 318.493C1663.24 316.858 1664.56 315.53 1666.2 315.527C1667.83 315.524 1669.16 316.847 1669.16 318.483ZM1679.62 321.424C1681.26 321.421 1682.58 320.093 1682.58 318.458C1682.58 316.823 1681.25 315.5 1679.61 315.503C1677.98 315.506 1676.65 316.834 1676.66 318.469C1676.66 320.104 1677.99 321.427 1679.62 321.424ZM1695.99 318.433C1696 320.069 1694.67 321.397 1693.04 321.4C1691.4 321.403 1690.07 320.079 1690.07 318.444C1690.07 316.809 1691.39 315.481 1693.03 315.478C1694.66 315.475 1695.99 316.798 1695.99 318.433ZM1706.45 321.375C1708.09 321.372 1709.41 320.044 1709.41 318.409C1709.4 316.774 1708.08 315.45 1706.44 315.453C1704.81 315.456 1703.48 316.784 1703.49 318.42C1703.49 320.055 1704.82 321.378 1706.45 321.375Z" fill="#8B95C6"/>
<path fill-rule="evenodd" clip-rule="evenodd" d="M349.972 270.001C351.607 269.998 352.93 268.67 352.927 267.035C352.924 265.4 351.596 264.077 349.961 264.08C348.326 264.083 347.002 265.411 347.005 267.046C347.008 268.681 348.336 270.004 349.972 270.001ZM363.283 269.977C364.918 269.974 366.241 268.646 366.238 267.01C366.235 265.375 364.907 264.052 363.272 264.055C361.637 264.058 360.313 265.386 360.316 267.021C360.319 268.657 361.647 269.98 363.283 269.977ZM379.652 266.986C379.655 268.621 378.332 269.949 376.697 269.952C375.061 269.955 373.733 268.632 373.73 266.997C373.727 265.362 375.051 264.033 376.686 264.03C378.321 264.027 379.649 265.351 379.652 266.986ZM390.111 269.927C391.746 269.924 393.069 268.596 393.066 266.961C393.063 265.326 391.735 264.003 390.1 264.006C388.465 264.009 387.142 265.337 387.145 266.972C387.148 268.607 388.476 269.93 390.111 269.927ZM352.951 279.969C352.954 281.604 351.631 282.932 349.995 282.935C348.36 282.938 347.032 281.615 347.029 279.98C347.026 278.345 348.349 277.017 349.985 277.014C351.62 277.011 352.948 278.334 352.951 279.969ZM363.409 282.91C365.045 282.907 366.368 281.579 366.365 279.944C366.362 278.309 365.034 276.986 363.399 276.989C361.763 276.992 360.44 278.32 360.443 279.955C360.446 281.59 361.774 282.913 363.409 282.91ZM379.779 279.92C379.782 281.555 378.459 282.883 376.824 282.886C375.188 282.889 373.86 281.566 373.857 279.931C373.854 278.295 375.178 276.967 376.813 276.964C378.448 276.961 379.776 278.284 379.779 279.92ZM390.238 282.861C391.873 282.858 393.196 281.53 393.193 279.895C393.19 278.26 391.862 276.937 390.227 276.94C388.592 276.943 387.268 278.271 387.271 279.906C387.274 281.541 388.602 282.864 390.238 282.861ZM352.975 293.383C352.978 295.018 351.655 296.346 350.02 296.349C348.385 296.352 347.057 295.029 347.054 293.394C347.051 291.759 348.374 290.431 350.009 290.428C351.644 290.425 352.972 291.748 352.975 293.383ZM363.434 296.325C365.069 296.322 366.392 294.994 366.389 293.358C366.386 291.723 365.058 290.4 363.423 290.403C361.788 290.406 360.465 291.734 360.468 293.369C360.471 295.004 361.799 296.328 363.434 296.325ZM379.804 293.334C379.807 294.969 378.483 296.297 376.848 296.3C375.213 296.303 373.885 294.98 373.882 293.345C373.879 291.709 375.202 290.381 376.837 290.378C378.473 290.375 379.801 291.699 379.804 293.334ZM390.262 296.275C391.898 296.272 393.221 294.944 393.218 293.309C393.215 291.674 391.887 290.351 390.251 290.354C388.616 290.357 387.293 291.685 387.296 293.32C387.299 294.955 388.627 296.278 390.262 296.275ZM353 306.797C353.003 308.432 351.68 309.76 350.045 309.763C348.409 309.766 347.081 308.443 347.078 306.808C347.075 305.173 348.399 303.845 350.034 303.842C351.669 303.839 352.997 305.162 353 306.797ZM363.459 309.739C365.094 309.736 366.417 308.408 366.414 306.772C366.411 305.137 365.083 303.814 363.448 303.817C361.813 303.82 360.49 305.148 360.493 306.783C360.496 308.419 361.824 309.742 363.459 309.739ZM379.828 306.748C379.831 308.383 378.508 309.711 376.873 309.714C375.238 309.717 373.91 308.394 373.907 306.759C373.904 305.123 375.227 303.795 376.862 303.792C378.497 303.789 379.825 305.113 379.828 306.748ZM390.287 309.689C391.922 309.686 393.245 308.358 393.242 306.723C393.239 305.088 391.911 303.765 390.276 303.768C388.641 303.771 387.318 305.099 387.321 306.734C387.324 308.369 388.652 309.692 390.287 309.689Z" fill="#8B95C6"/>
</g>
</svg>
