<svg width="195" height="195" viewBox="0 0 195 195" fill="none" xmlns="http://www.w3.org/2000/svg">
<circle cx="6.03982" cy="6.03982" r="6.03982" fill="#4D71CE" fill-opacity="0.22"/>
<ellipse cx="6.03982" cy="36.6705" rx="6.03982" ry="6.47124" fill="#4D71CE" fill-opacity="0.22"/>
<circle cx="6.03982" cy="67.3011" r="6.03982" fill="#4D71CE" fill-opacity="0.22"/>
<circle cx="6.03982" cy="97.4998" r="6.03982" fill="#4D71CE" fill-opacity="0.22"/>
<circle cx="6.03982" cy="127.699" r="6.03982" fill="#4D71CE" fill-opacity="0.22"/>
<ellipse cx="6.03982" cy="158.33" rx="6.03982" ry="6.47124" fill="#4D71CE" fill-opacity="0.22"/>
<circle cx="6.03982" cy="188.96" r="6.03982" fill="#4D71CE" fill-opacity="0.22"/>
<ellipse cx="36.6705" cy="6.03982" rx="6.47124" ry="6.03982" fill="#4D71CE" fill-opacity="0.22"/>
<circle cx="36.6705" cy="36.6705" r="6.47124" fill="#4D71CE" fill-opacity="0.22"/>
<ellipse cx="36.6705" cy="67.3011" rx="6.47124" ry="6.03982" fill="#4D71CE" fill-opacity="0.22"/>
<ellipse cx="36.6705" cy="97.4998" rx="6.47124" ry="6.03982" fill="#4D71CE" fill-opacity="0.22"/>
<ellipse cx="36.6705" cy="127.699" rx="6.47124" ry="6.03982" fill="#4D71CE" fill-opacity="0.22"/>
<circle cx="36.6705" cy="158.33" r="6.47124" fill="#4D71CE" fill-opacity="0.22"/>
<ellipse cx="36.6705" cy="188.96" rx="6.47124" ry="6.03982" fill="#4D71CE" fill-opacity="0.22"/>
<circle cx="67.3008" cy="6.03982" r="6.03982" fill="#4D71CE" fill-opacity="0.22"/>
<ellipse cx="67.3008" cy="36.6705" rx="6.03982" ry="6.47124" fill="#4D71CE" fill-opacity="0.22"/>
<circle cx="67.3008" cy="67.3011" r="6.03982" fill="#4D71CE" fill-opacity="0.22"/>
<circle cx="67.3008" cy="97.4998" r="6.03982" fill="#4D71CE" fill-opacity="0.22"/>
<circle cx="67.3008" cy="127.699" r="6.03982" fill="#4D71CE" fill-opacity="0.22"/>
<ellipse cx="67.3008" cy="158.33" rx="6.03982" ry="6.47124" fill="#4D71CE" fill-opacity="0.22"/>
<circle cx="67.3008" cy="188.96" r="6.03982" fill="#4D71CE" fill-opacity="0.22"/>
<circle cx="97.5" cy="6.03982" r="6.03982" fill="#4D71CE" fill-opacity="0.22"/>
<ellipse cx="97.5" cy="36.6705" rx="6.03982" ry="6.47124" fill="#4D71CE" fill-opacity="0.22"/>
<circle cx="97.5" cy="67.3011" r="6.03982" fill="#4D71CE" fill-opacity="0.22"/>
<circle cx="97.5" cy="97.4998" r="6.03982" fill="#4D71CE" fill-opacity="0.22"/>
<circle cx="97.5" cy="127.699" r="6.03982" fill="#4D71CE" fill-opacity="0.22"/>
<ellipse cx="97.5" cy="158.33" rx="6.03982" ry="6.47124" fill="#4D71CE" fill-opacity="0.22"/>
<circle cx="97.5" cy="188.96" r="6.03982" fill="#4D71CE" fill-opacity="0.22"/>
<circle cx="127.699" cy="6.03982" r="6.03982" fill="#4D71CE" fill-opacity="0.22"/>
<ellipse cx="127.699" cy="36.6705" rx="6.03982" ry="6.47124" fill="#4D71CE" fill-opacity="0.22"/>
<circle cx="127.699" cy="67.3011" r="6.03982" fill="#4D71CE" fill-opacity="0.22"/>
<circle cx="127.699" cy="97.4998" r="6.03982" fill="#4D71CE" fill-opacity="0.22"/>
<circle cx="127.699" cy="127.699" r="6.03982" fill="#4D71CE" fill-opacity="0.22"/>
<ellipse cx="127.699" cy="158.33" rx="6.03982" ry="6.47124" fill="#4D71CE" fill-opacity="0.22"/>
<circle cx="127.699" cy="188.96" r="6.03982" fill="#4D71CE" fill-opacity="0.22"/>
<ellipse cx="158.33" cy="6.03982" rx="6.47124" ry="6.03982" fill="#4D71CE" fill-opacity="0.22"/>
<circle cx="158.33" cy="36.6705" r="6.47124" fill="#4D71CE" fill-opacity="0.22"/>
<ellipse cx="158.33" cy="67.3011" rx="6.47124" ry="6.03982" fill="#4D71CE" fill-opacity="0.22"/>
<ellipse cx="158.33" cy="97.4998" rx="6.47124" ry="6.03982" fill="#4D71CE" fill-opacity="0.22"/>
<ellipse cx="158.33" cy="127.699" rx="6.47124" ry="6.03982" fill="#4D71CE" fill-opacity="0.22"/>
<circle cx="158.33" cy="158.33" r="6.47124" fill="#4D71CE" fill-opacity="0.22"/>
<ellipse cx="158.33" cy="188.96" rx="6.47124" ry="6.03982" fill="#4D71CE" fill-opacity="0.22"/>
<circle cx="188.96" cy="6.03982" r="6.03982" fill="#4D71CE" fill-opacity="0.22"/>
<ellipse cx="188.96" cy="36.6705" rx="6.03982" ry="6.47124" fill="#4D71CE" fill-opacity="0.22"/>
<circle cx="188.96" cy="67.3011" r="6.03982" fill="#4D71CE" fill-opacity="0.22"/>
<circle cx="188.96" cy="97.4998" r="6.03982" fill="#4D71CE" fill-opacity="0.22"/>
<circle cx="188.96" cy="127.699" r="6.03982" fill="#4D71CE" fill-opacity="0.22"/>
<ellipse cx="188.96" cy="158.33" rx="6.03982" ry="6.47124" fill="#4D71CE" fill-opacity="0.22"/>
<circle cx="188.96" cy="188.96" r="6.03982" fill="#4D71CE" fill-opacity="0.22"/>
</svg>
