<svg xmlns="http://www.w3.org/2000/svg" viewBox="0 0 512 512" width="192px" height="192px"><path fill="#D6E5E5" d="M356.7 248.2c-2.8-4-7.8-6.5-12.6-8-23.6-7.2-48.4-3-72.6-3.1-29.2 0-58.4-3.4-87.6-1.3-13 1-27.8 2.2-39.4 8.8-9.4 5.4-12.7 13-9.4 23.6 0 .1 0 .2.1.2 24.1 9.6 51.3 8.9 76.7 7.4 13.1-.8 26.1-2 39.2-2.8 14.2-.8 28.6-2.2 42.8-2.6 11.9-.3 23.8 1.2 35.7 1.5 8.5.3 22.8.4 26.7-9.2C358.3 258.3 359.6 252.4 356.7 248.2zM338.4 110.7c-2-10.9-8.3-16.2-19.2-16.7-13.3-.6-27.1 5.2-39 10.3-27 11.6-51.2 28-77.1 41.6-21.4 11.2-45.3 19-62.9 36.2-3.5 3.5-6.9 8-7.5 12.9-.6 5.1 3.2 9.7 7.1 12.9 7.9 6.7 20.6-.1 27.9-4.2 10.4-5.8 20.2-12.6 30.9-17.8 12.8-6.2 26.2-11.6 39.2-17.4 12-5.4 24.1-10.3 36.1-15.6 23.3-10.3 47.7-22.3 64.6-42C338.4 110.9 338.4 110.8 338.4 110.7zM339.6 403.6c-.6-4.9-3.9-9.4-7.5-12.9-17.6-17.2-41.5-25-62.9-36.2C243.3 341 219 324.6 192 313c-11.9-5.1-25.7-10.9-39-10.3-10.9.5-17.3 5.7-19.2 16.7 0 .1 0 .2-.1.2 16.9 19.6 41.4 31.6 64.6 42 12 5.3 24.1 10.3 36.1 15.6 13 5.8 26.4 11.2 39.2 17.4 10.7 5.2 20.5 12 30.9 17.8 7.4 4.1 20 10.9 27.9 4.2C336.4 413.3 340.2 408.7 339.6 403.6z"/><path fill="#4B7BB2" d="M465.8,167.4c-21.3-43.4-61.6-77.5-104.2-99c-42.8-21.7-92.3-33.1-140.1-25.5C142.6,55.3,66.1,113.2,43.6,190.8c0,0.9-0.2,1.7-0.7,2.6c-0.4,1.4-0.8,2.9-1.1,4.3c-0.5,1-1,2-1.4,3.1c-0.1,0.9-0.3,1.9-0.4,2.7c-0.9,4.1-2,8.2-2.7,12.3c-1.4,7.7-1.1,15.7-3.8,23c-0.2,2.1-0.5,4.2-0.8,6.3c0,0.3,0,0.5,0,0.7c-0.5,4.4-0.9,8.8-1.3,13.2c-0.8,9.2-1.2,18.4-1.1,27.6c0.3,18.1,2.4,36.2,6.9,53.7c8.7,33.3,25.5,64.8,52,87.3c18.2,15.5,39.5,25.7,62.4,32.3c25,7.3,51,11.4,77.1,11.5c51.5,0.1,103.2-13.9,145.6-43.7C452.7,372.5,511.8,260.8,465.8,167.4z M123.5,189.7c3.4-12.6,16.9-21.8,27.3-28.3c11.7-7.4,24.2-13.3,36.7-19.1c22.4-10.3,43-24,64.8-35.5c24.6-13,87-44.7,95.9,2.1c1.4,1.5,1.8,3.8,0.1,5.9c-16.8,20.7-40.8,33.7-64.6,44.7c-25.2,11.7-50.9,22.3-76.3,33.5c-11.4,5-21.9,11.8-32.6,18.1c-8.9,5.3-18.3,10-28.9,9.4C130.9,219.7,119.7,203.9,123.5,189.7z M326.3,429c-10.6,0.5-20-4.2-28.9-9.4c-10.7-6.4-21.2-13.1-32.6-18.1c-25.4-11.2-51.1-21.8-76.3-33.5c-23.8-11-47.8-24-64.6-44.7c-1.7-2.1-1.3-4.3,0.1-5.9c8.9-46.7,71.3-15,95.9-2.1c21.8,11.5,42.4,25.2,64.8,35.5c12.5,5.8,25,11.7,36.7,19.1c10.4,6.5,23.9,15.7,27.3,28.3C352.5,412.5,341.2,428.3,326.3,429z M356.6,276.9c-9.2,5.4-19.7,5.5-30,5c-12.4-0.7-24.8-1.9-37.3-1.1c-27.7,1.8-55.4,4.2-83.1,5.5c-26.2,1.2-53.5,0.8-77.9-9.8c-2.5-1.1-3.1-3.3-2.6-5.3c-13.7-45.6,56.3-46.3,84.1-46.1c24.6,0.2,49.2,2.8,73.8,1.6c13.8-0.7,27.6-1.2,41.3,0c12.2,1,28.4,2.9,37.3,12.5C372.2,250.1,369.5,269.3,356.6,276.9z"/><path d="M465.5,146.4c-25.2-40.4-65.9-71.6-108.7-91.6c-43.3-20.2-92.9-29.5-140.3-21.3c-81.8,14.2-160,74.7-182.9,155.6c-3.3,5.5-3.8,13.1-5.2,19.2c-1,4.3-1.7,8.7-2.3,13.1c-0.1,0.4-0.1,0.9-0.2,1.3c-0.1,0.3-0.2,0.5-0.2,0.8c-0.8,4.2-1.5,8.4-2.1,12.6c0,0.1-0.1,0.1-0.1,0.2c-0.5,1.2-0.6,2.3-0.4,3.2c-1,8.1-1.7,16.2-2.3,24.3c-0.8,11.4-0.9,22.9-0.3,34.3c1.3,22.3,5.6,44.5,13.3,65.5c15.3,41.8,45.5,76.5,86.1,95.3c23.1,10.6,48.8,16.7,73.9,20c25.5,3.3,51.5,3.1,77-0.6c50.9-7.4,98.5-29.7,136.1-64.8c36.4-33.9,65-77.6,78.1-125.8C498.3,239.8,492,188.9,465.5,146.4z M374.2,427.7c-42.4,29.8-94.1,43.8-145.6,43.7c-26.1-0.1-52.1-4.2-77.1-11.5c-22.9-6.7-44.2-16.8-62.4-32.3c-26.5-22.5-43.3-54-52-87.3c-4.6-17.5-6.6-35.6-6.9-53.7c-0.2-9.2,0.2-18.4,1.1-27.6c0.4-4.4,0.8-8.8,1.3-13.2c0-0.2,0-0.5,0-0.7c0.3-2.1,0.6-4.2,0.8-6.3c2.7-7.3,2.4-15.4,3.8-23c0.8-4.1,1.8-8.2,2.7-12.3c0.2-0.8,0.3-1.7,0.4-2.7c0.4-1,0.9-2.1,1.4-3.1c0.4-1.4,0.7-2.9,1.1-4.3c0.5-0.9,0.8-1.8,0.7-2.6c22.6-77.6,99-135.5,177.9-147.9c47.9-7.6,97.3,3.8,140.1,25.5c42.6,21.5,82.8,55.7,104.2,99C511.8,260.8,452.7,372.5,374.2,427.7z"/><path d="M362.2,239.3c-8.9-9.6-25.1-11.5-37.3-12.5c-13.8-1.1-27.6-0.6-41.3,0c-24.6,1.2-49.2-1.4-73.8-1.6c-27.8-0.2-97.8,0.5-84.1,46.1c-0.5,2,0.1,4.2,2.6,5.3c24.4,10.6,51.7,11,77.9,9.8c27.7-1.3,55.4-3.7,83.1-5.5c12.5-0.8,24.8,0.4,37.3,1.1c10.3,0.6,20.8,0.4,30-5C369.5,269.3,372.2,250.1,362.2,239.3z M356.4,262.9c-4,9.6-18.3,9.4-26.7,9.2c-11.9-0.4-23.7-1.8-35.7-1.5c-14.3,0.4-28.6,1.8-42.8,2.6c-13.1,0.8-26.1,2-39.2,2.8c-25.4,1.6-52.6,2.2-76.7-7.4c0-0.1,0-0.2-0.1-0.2c-3.3-10.6-0.1-18.2,9.4-23.6c11.5-6.6,26.4-7.9,39.4-8.8c29.3-2.2,58.4,1.2,87.6,1.3c24.1,0,49-4.1,72.6,3.1c4.7,1.4,9.8,3.9,12.6,8C359.6,252.4,358.3,258.3,356.4,262.9z"/><path d="M348.6 398.3c-3.4-12.6-16.9-21.8-27.3-28.3-11.7-7.4-24.2-13.3-36.7-19.1-22.4-10.3-43-24-64.8-35.5-24.6-13-87-44.7-95.9 2.1-1.4 1.5-1.8 3.8-.1 5.9 16.8 20.7 40.8 33.7 64.6 44.7 25.2 11.7 50.9 22.3 76.3 33.5 11.4 5 21.9 11.8 32.6 18.1 8.9 5.3 18.3 10 28.9 9.4C341.2 428.3 352.5 412.5 348.6 398.3zM332.5 416.5c-7.9 6.7-20.6-.1-27.9-4.2-10.4-5.8-20.2-12.6-30.9-17.8-12.8-6.2-26.2-11.6-39.2-17.4-12-5.4-24.1-10.3-36.1-15.6-23.3-10.3-47.7-22.3-64.6-42 0-.1 0-.2.1-.2 2-10.9 8.3-16.2 19.2-16.7 13.3-.6 27.1 5.2 39 10.3 27 11.6 51.2 28 77.1 41.6 21.4 11.2 45.3 19 62.9 36.2 3.5 3.5 6.9 8 7.5 12.9C340.2 408.7 336.4 413.3 332.5 416.5zM348.2 108.8c-8.9-46.7-71.3-15-95.9-2.1-21.8 11.5-42.4 25.2-64.8 35.5-12.5 5.8-25 11.7-36.7 19.1-10.4 6.5-23.9 15.7-27.3 28.3-3.9 14.2 7.4 30 22.4 30.8 10.6.5 20-4.2 28.9-9.4 10.7-6.4 21.2-13.1 32.6-18.1 25.4-11.2 51.1-21.8 76.3-33.5 23.8-11 47.8-24 64.6-44.7C350 112.6 349.6 110.4 348.2 108.8zM273.8 152.9c-12 5.3-24.1 10.3-36.1 15.6-13 5.8-26.4 11.2-39.2 17.4-10.7 5.2-20.5 12-30.9 17.8-7.4 4.1-20 10.9-27.9 4.2-3.9-3.3-7.7-7.8-7.1-12.9.6-4.9 3.9-9.4 7.5-12.9 17.6-17.2 41.5-25 62.9-36.2 25.9-13.5 50.2-30 77.1-41.6 11.9-5.1 25.7-10.9 39-10.3 10.9.5 17.3 5.7 19.2 16.7 0 .1 0 .2.1.2C321.5 130.6 297.1 142.6 273.8 152.9z"/></svg>