<svg width="24" height="24" viewBox="0 0 24 24" fill="none" xmlns="http://www.w3.org/2000/svg">
<rect x="3" y="7.50006" width="1.5" height="1.5" fill="#7183AE"/>
<rect width="1.5" height="7.5" transform="matrix(1 0 0 -1 3 16.5001)" fill="#7183AE"/>
<rect width="1.5" height="7.5" transform="matrix(-1 0 0 1 21 7.50006)" fill="#7183AE"/>
<rect x="21" y="16.5001" width="1.5" height="1.5" transform="rotate(-180 21 16.5001)" fill="#7183AE"/>
<rect x="4.5" y="6.00006" width="1.5" height="1.5" fill="#7183AE"/>
<rect x="7.5" y="7.50006" width="1.5" height="1.5" fill="#7183AE"/>
<rect x="16.5" y="16.5001" width="1.5" height="1.5" transform="rotate(-180 16.5 16.5001)" fill="#7183AE"/>
<rect width="1.5" height="1.5" transform="matrix(-1 0 0 1 16.5 7.50006)" fill="#7183AE"/>
<rect width="1.5" height="1.5" transform="matrix(1 0 0 -1 7.5 16.5001)" fill="#7183AE"/>
<rect x="6" y="9.00012" width="1.5" height="6" fill="#7183AE"/>
<rect width="1.5" height="6" transform="matrix(-1 0 0 1 18 9.00012)" fill="#7183AE"/>
<rect width="1.5" height="1.5" transform="matrix(1 0 0 -1 4.5 18.0001)" fill="#7183AE"/>
<rect width="1.5" height="1.5" transform="matrix(-1 0 0 1 19.5 6.00006)" fill="#7183AE"/>
<rect x="19.5" y="18.0001" width="1.5" height="1.5" transform="rotate(-180 19.5 18.0001)" fill="#7183AE"/>
<rect x="6" y="4.5" width="1.5" height="1.5" fill="#7183AE"/>
<rect x="9" y="6.00006" width="6" height="1.5" fill="#7183AE"/>
<rect x="15" y="18.0001" width="6" height="1.5" transform="rotate(-180 15 18.0001)" fill="#7183AE"/>
<rect x="10.5" y="10.4999" width="3" height="3" fill="#7183AE"/>
<rect width="1.5" height="1.5" transform="matrix(1 0 0 -1 6 19.4999)" fill="#7183AE"/>
<rect width="1.5" height="1.5" transform="matrix(-1 0 0 1 18 4.5)" fill="#7183AE"/>
<rect x="18" y="19.4999" width="1.5" height="1.5" transform="rotate(-180 18 19.4999)" fill="#7183AE"/>
<rect x="7.5" y="3" width="7.5" height="1.5" fill="#7183AE"/>
<rect width="1.5" height="1.5" transform="matrix(1 0 0 -1 7.5 20.9999)" fill="#7183AE"/>
<rect width="1.5" height="1.5" transform="matrix(-1 0 0 1 16.5 3)" fill="#7183AE"/>
<rect x="16.5" y="20.9999" width="7.5" height="1.5" transform="rotate(-180 16.5 20.9999)" fill="#7183AE"/>
</svg>
